inDegrees=no
num_controls=7
num_derivatives=13
num_iterations=77
num_multipliers=7
num_parameters=0
num_slacks=7
num_states=26
objective=0.470112
objective_accelerations=0.061271
objective_balance=0.002048
objective_effort=0.020005
objective_height=0.377212
objective_ligament=0.009576
solver_duration=1051.619440
status=Solve_Succeeded
success=true
DataType=double
version=3
OpenSimVersion=4.5
endheader
time	/jointset/ground_pelvis/pelvis_tilt/value	/jointset/ground_pelvis/pelvis_tx/value	/jointset/ground_pelvis/pelvis_ty/value	/jointset/hip_l/hip_flexion_l/value	/jointset/hip_l/hip_adduction_l/value	/jointset/hip_l/hip_rotation_l/value	/jointset/back/lumbar_extension/value	/jointset/patellofemoral_l/patellar_flexion_l/value	/jointset/knee_l/knee_flexion_l/value	/jointset/knee_l/knee_adduction_l/value	/jointset/knee_l/knee_rotation_l/value	/jointset/ankle_l/ankle_angle_l/value	/jointset/subtalar_l/subtalar_angle_l/value	/jointset/ground_pelvis/pelvis_tilt/speed	/jointset/ground_pelvis/pelvis_tx/speed	/jointset/ground_pelvis/pelvis_ty/speed	/jointset/hip_l/hip_flexion_l/speed	/jointset/hip_l/hip_adduction_l/speed	/jointset/hip_l/hip_rotation_l/speed	/jointset/back/lumbar_extension/speed	/jointset/patellofemoral_l/patellar_flexion_l/speed	/jointset/knee_l/knee_flexion_l/speed	/jointset/knee_l/knee_adduction_l/speed	/jointset/knee_l/knee_rotation_l/speed	/jointset/ankle_l/ankle_angle_l/speed	/jointset/subtalar_l/subtalar_angle_l/speed	/forceset/tau_hip_flexion_l	/forceset/tau_hip_adduction_l	/forceset/tau_hip_rotation_l	/forceset/tau_knee_flexion_l	/forceset/tau_ankle_angle_l	/forceset/tau_subtalar_angle_l	/forceset/tau_lumbar_extension	lambda_cid13_p0	lambda_cid13_p1	lambda_cid13_p2	lambda_cid13_p3	lambda_cid13_p4	lambda_cid13_p5	lambda_cid14_p0	/jointset/ground_pelvis/pelvis_tilt/accel	/jointset/ground_pelvis/pelvis_tx/accel	/jointset/ground_pelvis/pelvis_ty/accel	/jointset/hip_l/hip_flexion_l/accel	/jointset/hip_l/hip_adduction_l/accel	/jointset/hip_l/hip_rotation_l/accel	/jointset/back/lumbar_extension/accel	/jointset/patellofemoral_l/patellar_flexion_l/accel	/jointset/knee_l/knee_flexion_l/accel	/jointset/knee_l/knee_adduction_l/accel	/jointset/knee_l/knee_rotation_l/accel	/jointset/ankle_l/ankle_angle_l/accel	/jointset/subtalar_l/subtalar_angle_l/accel	gamma_cid13_p0	gamma_cid13_p1	gamma_cid13_p2	gamma_cid13_p3	gamma_cid13_p4	gamma_cid13_p5	gamma_cid14_p0
0.5	-0.4097815861924663	-0.06413973123264063	0.779710706430234	1.16720636092926	-0.3522976827777073	-0.07062005086643257	-0.4077284309631526	0.6965747367588533	0.6965747367593199	-0.05412126792726128	-0.1744246558297895	0.04310467778346989	0.08186497758474495	-1.29235550727902	-0.3886583212862937	-0.4830841985459253	2.81598697427658	0.03187623419633205	0.4291801563683727	-0.2781367874916437	1.308737117911658	1.308737117911634	0.1889361935420137	-0.0006429884560480532	-0.1189580605455638	-0.007546656987240107	-0.1647369383848516	0.01894029420664864	0.005282646216963267	-0.1445973253648279	0.1033798921661997	-0.008001060028883226	0.1500838525008292	7.472070369220082	2.81501885400836	-1.470502912730948	-9.219640512388866	-437.0296777942422	-52.35458977473439	-15.31443798543147	0.5609590216343402	0.7182095427670167	-0.3468368313118957	-1.739834420109517	0.1450401434297453	-0.4015034890818903	1.561818403436928	-0.9244453270638392	-0.9244453270637364	-0.2806781964324696	0.04386555346307089	0.1623620120330609	0.2046775142639052	9.355732447406686e-09	-1.149017846353243e-06	-4.868265108556771e-07	-2.468743569500002e-07	-2.138267716449426e-07	1.801304960699374e-07	-1.422095335983221e-07
0.51	-0.4226746722953254	-0.06798984331391335	0.7748637161004336	1.195274293080461	-0.3519724989338613	-0.06635175853701693	-0.4104326994243507	0.7096137548576903	0.7096137548579774	-0.05224590370522791	-0.1744319848620458	0.0419231834514616	0.08179890149563945	-1.286105441835403	-0.3813149379886538	-0.4862029139471334	2.797225877509118	0.03314987068694265	0.4244358671949575	-0.2627199247185523	1.298875020915492	1.298875020915496	0.1861208258634382	-0.0008180068527081089	-0.1173253026799851	-0.00567511007611418	-0.1712142458415397	0.01957991716557564	0.004891863614724354	-0.1451166619818634	0.1054348062632338	-0.007344804714863451	0.1545724956895709	7.991080111564343	2.57544350546828	-1.588008013990149	-9.723633927559939	-440.4662917570943	-52.4594696116496	-14.78306256925462	0.680453158694692	0.749724997302841	-0.2777838030404962	-2.000303374630154	0.1171939607957041	-0.5173500213773382	1.531167219362259	-1.045787835765324	-1.045787835761709	-0.284601797815864	-0.04752600795934609	0.1660127301369314	0.1776661925073909	2.042924142338802e-08	-1.164859167313504e-06	-6.153428610225712e-07	-2.583833935279479e-07	-1.837772253723118e-07	1.725719028958072e-07	-1.287444252501289e-07
0.52	-0.4355005731731338	-0.07176505710740411	0.7699888596349181	1.22314340305006	-0.3516348450133233	-0.06213220077728963	-0.4129828898567953	0.7225484127966456	0.7225484127966605	-0.05039922030908479	-0.1744409321724883	0.04075847270937211	0.08175139545823915	-1.278918462273034	-0.3736786637299032	-0.488657425688615	2.776222537958954	0.03437024953427199	0.4194332424253225	-0.2473211817407136	1.287865085924464	1.287865085924495	0.1832000284150618	-0.0009666441185327999	-0.1156013425617269	-0.003832646646160713	-0.1776915532984007	0.02021954012461341	0.004501081011418338	-0.1456359985987607	0.1074897203603957	-0.006688549400674334	0.1590611388780701	8.509568961710553	2.336129688259077	-1.705749739060811	-10.23396601369178	-443.9145800818419	-52.57928206783165	-14.25535124917643	0.7483418453846955	0.7767877349886844	-0.2139960993666904	-2.188282976650107	0.1343886147736081	-0.453170608325811	1.558194444386516	-1.154012926036062	-1.154012926036062	-0.3017641503924327	0.04914177963017805	0.1806024625683934	0.1988608180293512	2.242466108612815e-08	-1.15504088162349e-06	-6.62306729178777e-07	-2.624759493019549e-07	-1.719293642888359e-07	1.795571138741674e-07	-1.242732984352552e-07
0.53	-0.4482499132381265	-0.07546268743599796	0.7650927646190536	1.250791476737048	-0.3512857765155984	-0.05796253698635746	-0.4153793001148955	0.7353671476104294	0.7353671476103127	-0.04858395329693137	-0.1744505323474013	0.03961100672308829	0.08172147093038287	-1.270784652069713	-0.3658218495600122	-0.4904512815696629	2.753027910281848	0.03538306504072689	0.4146194286579333	-0.2319819977801199	1.275679916855059	1.275679916855101	0.1796486550617111	-0.0008676176709707218	-0.1139212267185416	-0.002226034501992287	-0.1845549372560766	0.02110470402360026	0.004068920746237948	-0.1452650984835912	0.1079901651685911	-0.006025450460645003	0.1636920613236759	8.519148115839876	2.137483373620444	-1.778040731056597	-10.19204696432256	-447.3528770742319	-52.52718879402572	-13.73132988906868	0.8706173406593247	0.793908195798417	-0.1455690868621852	-2.439715171456345	0.07594737773168554	-0.477584909246447	1.518611187531371	-1.281038508324857	-1.281038508323653	-0.41279568706261	0.003068874683593833	0.157263861088902	0.1307586303701203	-1.594336867089446e-08	-8.844908922722928e-07	-2.351891536936849e-07	-1.93596757263246e-07	-2.149279364584604e-07	2.428702796229519e-07	-1.429281242160914e-07
0.54	-0.460912971854497	-0.07908099363533333	0.7601820332935009	1.278196671645605	-0.3509283359909768	-0.05383743096275131	-0.4176229523702633	0.748057976811318	0.7480579768111232	-0.04681039437015306	-0.1744565850983801	0.03847945143841642	0.08170545196752016	-1.261662172552245	-0.3578138378782031	-0.4915846876259297	2.727646782276066	0.03604465491317558	0.4105216889585092	-0.2167695811940386	1.262283963348392	1.262283963348445	0.1748584113381256	-0.0002571593288380646	-0.1124192022395345	-0.001051533647437167	-0.1914183212139406	0.0219898679226009	0.003636760481154283	-0.1448941983683306	0.1084906099768696	-0.005362351520577671	0.1683229837690501	8.528175326554859	1.938749504924636	-1.850107646636779	-10.15628274038346	-450.8036674650278	-52.49082134618322	-13.21109613464718	0.946075708214259	0.8070272373718106	-0.08190613441056137	-2.62558304238537	0.06414348797253176	-0.3099557947327931	1.532840969484196	-1.396169813488585	-1.396169813488548	-0.5495382244391861	0.1514281585443275	0.1449841897321509	0.1124385601066174	-9.896883182850615e-08	-3.254717839768033e-07	7.164440615647646e-07	-4.398286551685057e-08	-3.186076688230055e-07	3.685037357560364e-07	-1.871691103155854e-07
0.55	-0.4734801053917772	-0.08261841645949891	0.7552633041485012	1.305337244939442	-0.3505664658818147	-0.04974584497875978	-0.4197152923066044	0.7606087787133428	0.7606087787130048	-0.04509404998986647	-0.1744513958464832	0.03736203891000197	0.08169852853055454	-1.251623744001601	-0.349641482923544	-0.4920453713573842	2.700120016252212	0.03629111753641431	0.4078191029135895	-0.2017396429569074	1.247680991096372	1.247680991096401	0.1682923278552513	0.001308529189587382	-0.1110718257122172	-0.0003759186603078359	-0.1977981065173647	0.02245746294475154	0.003167491826995762	-0.1453251644449502	0.1101806728211224	-0.004781922672894585	0.1725946327461294	8.915770406538382	1.746122209269895	-1.964825634616492	-10.45073502134143	-454.3045356383142	-52.53845068532477	-12.69476133156198	1.053815790778096	0.8267337527897711	-0.01085902239646011	-2.86843937859331	-0.0009582091400424323	-0.2470568565010049	1.481884719222495	-1.521632561803287	-1.521632561807273	-0.7278430570805103	0.1614140752519823	0.1283386008652289	0.03856552067489233	-1.466952709759498e-07	-1.064370884058677e-08	1.248658599765302e-06	4.071857439008778e-08	-3.624958481259632e-07	4.484914766805976e-07	-2.128198513338472e-07
